if (_typeface_js && _typeface_js.loadFace) _typeface_js.loadFace({"glyphs":{"S":{"x_min":84,"x_max":1285.8125,"ha":1367,"o":"m 84 0 l 84 201 l 955 201 q 1052 222 1021 201 q 1083 287 1083 244 l 1083 392 q 1052 457 1083 435 q 955 479 1021 479 l 375 479 q 84 699 84 479 l 84 828 q 372 1026 84 1026 l 1244 1026 l 1244 824 l 365 824 q 304 815 320 824 q 288 787 288 806 l 288 726 q 304 690 288 701 q 366 680 320 680 l 953 680 q 1108 662 1044 680 q 1211 608 1172 644 q 1268 521 1250 573 q 1285 401 1285 469 l 1285 279 q 1268 158 1285 211 q 1211 71 1250 106 q 1108 18 1172 36 q 953 0 1044 0 l 84 0 "},"/":{"x_min":27.21875,"x_max":642.453125,"ha":670,"o":"m 27 0 l 479 1026 l 642 1026 l 191 0 l 27 0 "},"K":{"x_min":90,"x_max":1441.234375,"ha":1380,"o":"m 90 0 l 90 1026 l 287 1026 l 287 640 l 406 640 l 1017 1026 l 1393 1026 l 605 551 l 1441 0 l 1076 0 l 406 462 l 287 462 l 287 0 l 90 0 "},"7":{"x_min":54,"x_max":1287,"ha":1328,"o":"m 74 0 l 968 824 l 54 824 l 54 1026 l 1174 1026 q 1222 1015 1201 1026 q 1257 987 1243 1005 q 1279 947 1272 970 q 1287 901 1287 924 q 1277 851 1287 876 q 1248 808 1267 826 l 375 0 l 74 0 "},"d":{"x_min":90,"x_max":1328.8125,"ha":1413,"o":"m 90 0 l 90 1026 l 996 1026 q 1151 1007 1087 1026 q 1254 954 1215 989 q 1311 867 1293 919 q 1328 746 1328 814 l 1328 279 q 1311 158 1328 211 q 1254 71 1293 106 q 1151 18 1215 36 q 996 0 1087 0 l 90 0 m 287 201 l 997 201 q 1095 222 1064 201 q 1126 287 1126 244 l 1126 738 q 1095 803 1126 781 q 997 824 1064 824 l 287 824 l 287 201 "},",":{"x_min":93,"x_max":229,"ha":323,"o":"m 93 -89 l 93 246 l 229 246 l 229 -89 l 93 -89 "},"Y":{"x_min":90,"x_max":1330,"ha":1417,"o":"m 290 0 l 290 201 l 999 201 q 1096 222 1065 201 q 1127 287 1127 244 l 1127 335 l 422 335 q 266 353 329 335 q 164 406 202 371 q 107 493 125 441 q 90 613 90 545 l 90 1026 l 292 1026 l 292 608 q 323 543 292 565 q 420 522 354 522 l 1127 522 l 1127 1026 l 1330 1026 l 1330 279 q 1312 158 1330 211 q 1255 71 1294 106 q 1153 18 1217 36 q 997 0 1089 0 l 290 0 "},"E":{"x_min":90,"x_max":1329.625,"ha":1390,"o":"m 90 0 l 90 1026 l 1326 1026 l 1326 824 l 287 824 l 287 690 l 1137 690 l 1137 503 l 287 503 l 287 201 l 1329 201 l 1329 0 l 90 0 "},"y":{"x_min":90,"x_max":1330,"ha":1417,"o":"m 290 0 l 290 201 l 999 201 q 1096 222 1065 201 q 1127 287 1127 244 l 1127 335 l 422 335 q 266 353 329 335 q 164 406 202 371 q 107 493 125 441 q 90 613 90 545 l 90 1026 l 292 1026 l 292 608 q 323 543 292 565 q 420 522 354 522 l 1127 522 l 1127 1026 l 1330 1026 l 1330 279 q 1312 158 1330 211 q 1255 71 1294 106 q 1153 18 1217 36 q 997 0 1089 0 l 290 0 "},"\"":{"x_min":30,"x_max":392,"ha":423,"o":"m 256 744 l 256 1079 l 392 1079 l 392 744 l 256 744 m 30 744 l 30 1079 l 166 1079 l 166 744 l 30 744 "},"g":{"x_min":84,"x_max":1324,"ha":1399,"o":"m 416 0 q 260 18 323 0 q 158 71 196 36 q 101 158 119 106 q 84 279 84 211 l 84 746 q 101 867 84 814 q 158 954 119 919 q 260 1007 196 989 q 416 1026 323 1026 l 1321 1026 l 1321 824 l 415 824 q 317 803 348 824 q 286 738 286 781 l 286 287 q 317 222 286 244 q 414 201 348 201 l 1127 201 l 1127 503 l 457 503 l 457 690 l 1224 690 q 1294 660 1265 690 q 1324 588 1324 630 l 1324 0 l 416 0 "},"e":{"x_min":90,"x_max":1329.625,"ha":1390,"o":"m 90 0 l 90 1026 l 1326 1026 l 1326 824 l 287 824 l 287 690 l 1137 690 l 1137 503 l 287 503 l 287 201 l 1329 201 l 1329 0 l 90 0 "},"J":{"x_min":16,"x_max":911.8125,"ha":1007,"o":"m 16 0 l 16 201 l 581 201 q 678 222 647 201 q 709 287 709 244 l 709 1026 l 911 1026 l 911 279 q 894 158 911 211 q 837 71 876 106 q 734 18 798 36 q 579 0 670 0 l 16 0 "},"|":{"x_min":90,"x_max":203,"ha":293,"o":"m 90 -114 l 90 1134 l 203 1134 l 203 -114 l 90 -114 "},"^":{"x_min":89.828125,"x_max":726.828125,"ha":817,"o":"m 89 575 l 336 997 q 367 1028 348 1018 q 406 1039 386 1039 q 449 1029 430 1039 q 480 998 468 1019 l 726 575 l 567 575 l 408 877 l 249 575 l 89 575 "},"q":{"x_min":84,"x_max":1436,"ha":1446,"o":"m 416 0 q 260 18 323 0 q 158 71 197 36 q 101 158 119 106 q 84 279 84 211 l 84 746 q 101 867 84 814 q 158 954 119 919 q 260 1007 196 989 q 416 1026 323 1026 l 991 1026 q 1147 1007 1083 1026 q 1249 954 1211 989 q 1306 867 1288 919 q 1324 746 1324 814 l 1324 410 l 1336 410 q 1436 311 1436 410 l 1436 106 q 1336 0 1436 0 l 416 0 m 286 287 q 317 222 286 244 q 414 201 348 201 l 1231 201 q 1256 229 1256 201 q 1231 257 1256 257 l 1202 257 q 1121 344 1121 257 l 1121 738 q 1090 803 1121 781 q 993 824 1059 824 l 414 824 q 317 803 348 824 q 286 738 286 781 l 286 287 "},"b":{"x_min":90,"x_max":1329,"ha":1413,"o":"m 90 0 l 90 1026 l 1015 1026 q 1251 972 1176 1026 q 1326 810 1326 919 l 1326 665 q 1296 577 1326 609 q 1223 529 1266 544 q 1299 480 1270 514 q 1329 379 1329 446 l 1329 214 q 1252 56 1329 113 q 1015 0 1176 0 l 90 0 m 287 201 l 1008 201 q 1100 215 1070 201 q 1130 275 1130 230 l 1130 372 q 1099 419 1130 404 q 1011 435 1068 435 l 287 435 l 287 201 m 287 621 l 1024 621 q 1106 634 1082 621 q 1131 670 1131 647 l 1131 769 q 1102 810 1131 796 q 1022 824 1073 824 l 287 824 l 287 621 "},"D":{"x_min":90,"x_max":1328.8125,"ha":1413,"o":"m 90 0 l 90 1026 l 996 1026 q 1151 1007 1087 1026 q 1254 954 1215 989 q 1311 867 1293 919 q 1328 746 1328 814 l 1328 279 q 1311 158 1328 211 q 1254 71 1293 106 q 1151 18 1215 36 q 996 0 1087 0 l 90 0 m 287 201 l 997 201 q 1095 222 1064 201 q 1126 287 1126 244 l 1126 738 q 1095 803 1126 781 q 997 824 1064 824 l 287 824 l 287 201 "},"z":{"x_min":61,"x_max":1325,"ha":1392,"o":"m 167 0 q 88 31 115 0 q 61 102 61 62 q 73 153 61 129 q 108 195 85 177 l 947 824 l 77 824 l 77 1026 l 1220 1026 q 1298 994 1271 1026 q 1325 921 1325 962 q 1313 872 1325 896 q 1279 830 1302 848 l 440 201 l 1319 201 l 1319 0 l 167 0 "},"w":{"x_min":87,"x_max":1909.8125,"ha":1997,"o":"m 419 0 q 263 18 326 0 q 161 71 199 36 q 104 158 122 106 q 87 279 87 211 l 87 1026 l 289 1026 l 289 287 q 320 222 289 244 q 417 201 351 201 l 901 201 l 901 1026 l 1098 1026 l 1098 201 l 1578 201 q 1676 222 1645 201 q 1707 287 1707 244 l 1707 1026 l 1909 1026 l 1909 279 q 1892 158 1909 211 q 1835 71 1874 106 q 1732 18 1796 36 q 1577 0 1668 0 l 419 0 "},"$":{"x_min":90,"x_max":1039,"ha":1129,"o":"m 101 132 l 101 278 l 799 278 q 877 351 877 278 l 877 365 q 799 446 877 446 l 303 446 q 90 630 90 446 l 90 679 q 137 844 90 791 q 303 897 184 897 l 516 897 l 516 1026 l 630 1026 l 630 897 l 1014 897 l 1014 753 l 329 753 q 252 673 252 753 l 252 655 q 329 578 252 578 l 825 578 q 1039 411 1039 578 l 1039 312 q 825 132 1039 132 l 630 132 l 630 0 l 516 0 l 516 132 l 101 132 "},"\\":{"x_min":27.21875,"x_max":642.453125,"ha":670,"o":"m 477 0 l 27 1026 l 190 1026 l 642 0 l 477 0 "},"~":{"x_min":89.828125,"x_max":673.75,"ha":764,"o":"m 89 555 q 261 650 174 650 q 333 638 302 650 q 391 614 364 627 q 441 589 417 600 q 492 578 465 578 q 532 592 511 578 q 573 638 552 607 l 673 525 q 498 429 593 429 q 434 440 462 429 q 379 464 405 451 q 330 488 353 477 q 281 500 306 500 q 235 488 257 500 q 190 438 213 476 l 89 555 "},"-":{"x_min":27,"x_max":505,"ha":532,"o":"m 27 444 l 27 590 l 505 590 l 505 444 l 27 444 "},"Q":{"x_min":84,"x_max":1436,"ha":1446,"o":"m 416 0 q 260 18 323 0 q 158 71 197 36 q 101 158 119 106 q 84 279 84 211 l 84 746 q 101 867 84 814 q 158 954 119 919 q 260 1007 196 989 q 416 1026 323 1026 l 991 1026 q 1147 1007 1083 1026 q 1249 954 1211 989 q 1306 867 1288 919 q 1324 746 1324 814 l 1324 410 l 1336 410 q 1436 311 1436 410 l 1436 106 q 1336 0 1436 0 l 416 0 m 286 287 q 317 222 286 244 q 414 201 348 201 l 1231 201 q 1256 229 1256 201 q 1231 257 1256 257 l 1202 257 q 1121 344 1121 257 l 1121 738 q 1090 803 1121 781 q 993 824 1059 824 l 414 824 q 317 803 348 824 q 286 738 286 781 l 286 287 "},"M":{"x_min":90,"x_max":1846,"ha":1936,"o":"m 90 0 l 90 942 q 118 1015 90 991 q 183 1040 147 1040 q 229 1030 206 1040 q 272 1002 253 1021 l 968 229 l 1663 1002 q 1705 1030 1681 1021 q 1752 1040 1729 1040 q 1817 1015 1788 1040 q 1846 942 1846 991 l 1846 0 l 1649 0 l 1649 695 l 1038 16 q 968 -14 1010 -14 q 897 16 925 -14 l 287 695 l 287 0 l 90 0 "},"C":{"x_min":84,"x_max":1324,"ha":1383,"o":"m 416 0 q 260 18 323 0 q 158 71 196 36 q 101 158 119 106 q 84 279 84 211 l 84 746 q 101 867 84 814 q 158 954 119 919 q 260 1007 196 989 q 416 1026 323 1026 l 1321 1026 l 1321 824 l 414 824 q 317 803 348 824 q 286 738 286 781 l 286 287 q 317 222 286 244 q 414 201 348 201 l 1324 201 l 1324 0 l 416 0 "},"̦":{"x_min":181,"x_max":317,"ha":499,"o":"m 181 -317 l 181 -92 l 317 -92 l 317 -317 l 181 -317 "},"[":{"x_min":90,"x_max":326.984375,"ha":417,"o":"m 90 -115 l 90 1135 l 326 1135 l 326 1007 l 214 1007 l 214 9 l 326 9 l 326 -115 l 90 -115 "},"L":{"x_min":90,"x_max":987.984375,"ha":1022,"o":"m 90 0 l 90 1026 l 287 1026 l 287 201 l 987 201 l 987 0 l 90 0 "},"!":{"x_min":90,"x_max":294,"ha":384,"o":"m 90 300 l 90 1026 l 281 1026 l 281 300 l 90 300 m 193 -4 q 120 24 148 -4 q 93 97 93 52 q 120 171 93 143 q 193 200 148 200 q 265 171 236 200 q 294 97 294 143 q 265 24 294 52 q 193 -4 236 -4 "}," ":{"x_min":0,"x_max":0,"ha":500},"{":{"x_min":90,"x_max":388.484375,"ha":478,"o":"m 348 -115 q 217 -76 258 -115 q 177 54 177 -37 l 177 386 q 153 433 177 414 q 90 452 130 452 l 90 564 q 177 627 177 564 l 177 963 q 217 1096 177 1057 q 348 1135 258 1135 l 388 1135 l 388 1007 q 340 1002 358 1007 q 314 987 323 998 q 302 957 305 976 q 300 908 300 937 l 300 637 q 280 555 300 589 q 223 507 260 521 q 282 460 263 493 q 301 376 301 426 l 301 110 q 301 63 301 82 q 310 33 301 45 q 337 15 319 21 q 388 10 355 10 l 388 -115 l 348 -115 "},"X":{"x_min":32.671875,"x_max":1687.78125,"ha":1718,"o":"m 32 0 l 705 513 l 34 1026 l 355 1026 l 853 637 l 1352 1026 l 1674 1026 l 1008 517 l 1687 0 l 1367 0 l 860 394 l 353 0 l 32 0 "},"P":{"x_min":90,"x_max":1330,"ha":1364,"o":"m 90 0 l 90 1026 l 997 1026 q 1153 1007 1089 1026 q 1255 954 1217 989 q 1312 867 1294 919 q 1330 747 1330 815 l 1330 613 q 1312 493 1330 545 q 1255 406 1294 441 q 1153 353 1217 371 q 997 335 1089 335 l 287 335 l 287 0 l 90 0 m 287 522 l 999 522 q 1096 543 1065 522 q 1127 608 1127 565 l 1127 738 q 1096 803 1127 781 q 999 824 1065 824 l 287 824 l 287 522 "},"%":{"x_min":90,"x_max":1181,"ha":1271,"o":"m 265 0 l 886 1026 l 1001 1026 l 380 0 l 265 0 m 195 727 q 263 668 195 668 l 423 668 q 493 726 493 668 l 493 866 q 423 925 493 925 l 263 925 q 195 866 195 925 l 195 727 m 270 567 q 90 719 90 567 l 90 873 q 270 1026 90 1026 l 413 1026 q 596 873 596 1026 l 596 718 q 413 567 596 567 l 270 567 m 780 159 q 848 100 780 100 l 1009 100 q 1078 158 1078 100 l 1078 298 q 1009 357 1078 357 l 848 357 q 780 298 780 357 l 780 159 m 857 0 q 677 151 677 0 l 677 306 q 857 458 677 458 l 998 458 q 1181 306 1181 458 l 1181 149 q 998 0 1181 0 l 857 0 "},"#":{"x_min":90,"x_max":697,"ha":787,"o":"m 133 0 l 171 255 l 90 255 l 90 373 l 189 373 l 231 656 l 142 656 l 142 773 l 248 773 l 286 1026 l 423 1026 l 385 773 l 485 773 l 523 1026 l 660 1026 l 622 773 l 697 773 l 697 656 l 604 656 l 561 373 l 647 373 l 647 255 l 543 255 l 505 0 l 370 0 l 408 255 l 306 255 l 268 0 l 133 0 m 324 373 l 423 373 l 468 656 l 367 656 l 324 373 "},"_":{"x_min":0,"x_max":1096,"ha":1093,"o":"m 0 -265 l 0 -133 l 1096 -133 l 1096 -265 l 0 -265 "},"+":{"x_min":90,"x_max":799,"ha":889,"o":"m 373 154 l 373 444 l 90 444 l 90 590 l 373 590 l 373 877 l 516 877 l 516 590 l 799 590 l 799 444 l 516 444 l 516 154 l 373 154 "},")":{"x_min":89.46875,"x_max":351,"ha":461,"o":"m 89 -115 q 209 219 172 68 q 246 511 246 371 q 207 801 246 651 q 90 1135 169 951 l 207 1135 q 315 814 280 965 q 351 512 351 664 q 316 208 351 361 q 205 -115 281 55 l 89 -115 "},"'":{"x_min":30,"x_max":166,"ha":197,"o":"m 30 744 l 30 1079 l 166 1079 l 166 744 l 30 744 "},"}":{"x_min":89.890625,"x_max":388.109375,"ha":478,"o":"m 89 -115 l 89 10 q 123 12 107 10 q 151 25 138 15 q 170 52 163 34 q 177 101 177 71 l 177 376 q 253 506 177 478 q 177 637 177 535 l 177 916 q 174 959 177 941 q 162 986 171 976 q 136 1002 153 997 q 89 1007 119 1007 l 89 1135 l 128 1135 q 259 1096 217 1135 q 301 963 301 1058 l 301 627 q 323 579 301 598 q 388 561 345 561 l 388 451 q 301 385 301 451 l 301 54 q 259 -76 301 -38 q 128 -115 217 -115 l 89 -115 "},"a":{"x_min":87,"x_max":1327,"ha":1414,"o":"m 87 0 l 87 677 q 183 935 87 845 q 474 1026 280 1026 l 939 1026 q 1230 935 1133 1026 q 1327 677 1327 845 l 1327 0 l 1130 0 l 1130 328 l 284 328 l 284 0 l 87 0 m 284 515 l 1130 515 l 1130 677 q 1121 742 1130 714 q 1089 787 1112 769 q 1030 815 1067 806 q 937 824 993 824 l 476 824 q 383 815 420 824 q 324 787 346 806 q 292 742 301 769 q 284 677 284 714 l 284 515 "},"T":{"x_min":12,"x_max":1252,"ha":1270,"o":"m 533 0 l 533 824 l 12 824 l 12 1026 l 1252 1026 l 1252 824 l 730 824 l 730 0 l 533 0 "},"=":{"x_min":90,"x_max":799,"ha":889,"o":"m 90 583 l 90 729 l 799 729 l 799 583 l 90 583 m 90 305 l 90 451 l 799 451 l 799 305 l 90 305 "},"N":{"x_min":90,"x_max":1330,"ha":1420,"o":"m 90 0 l 90 937 q 117 1012 90 985 q 182 1040 145 1040 q 216 1034 198 1040 q 248 1016 234 1028 l 1133 290 l 1133 1026 l 1330 1026 l 1330 88 q 1302 13 1330 40 q 1237 -14 1274 -14 q 1203 -8 1221 -14 q 1171 9 1185 -2 l 287 735 l 287 0 l 90 0 "},"2":{"x_min":90,"x_max":1289,"ha":1368,"o":"m 90 0 l 90 467 q 166 624 90 567 q 394 680 242 680 l 1006 680 q 1068 690 1052 680 q 1085 726 1085 701 l 1085 787 q 1068 815 1085 806 q 1007 824 1052 824 l 211 824 l 211 1026 l 1000 1026 q 1289 828 1289 1026 l 1289 699 q 997 479 1289 479 l 394 479 q 287 397 287 479 l 287 201 l 1289 201 l 1289 0 l 90 0 "},"j":{"x_min":16,"x_max":911.8125,"ha":1007,"o":"m 16 0 l 16 201 l 581 201 q 678 222 647 201 q 709 287 709 244 l 709 1026 l 911 1026 l 911 279 q 894 158 911 211 q 837 71 876 106 q 734 18 798 36 q 579 0 670 0 l 16 0 "},"Z":{"x_min":61,"x_max":1325,"ha":1392,"o":"m 167 0 q 88 31 115 0 q 61 102 61 62 q 73 153 61 129 q 108 195 85 177 l 947 824 l 77 824 l 77 1026 l 1220 1026 q 1298 994 1271 1026 q 1325 921 1325 962 q 1313 872 1325 896 q 1279 830 1302 848 l 440 201 l 1319 201 l 1319 0 l 167 0 "},"u":{"x_min":87,"x_max":1320,"ha":1407,"o":"m 419 0 q 263 18 326 0 q 161 71 199 36 q 104 158 122 106 q 87 279 87 211 l 87 1026 l 289 1026 l 289 287 q 320 222 289 244 q 417 201 351 201 l 989 201 q 1086 222 1055 201 q 1117 287 1117 244 l 1117 1026 l 1320 1026 l 1320 279 q 1302 158 1320 211 q 1245 71 1284 106 q 1143 18 1207 36 q 987 0 1079 0 l 419 0 "},"1":{"x_min":53,"x_max":532,"ha":616,"o":"m 336 0 l 336 715 q 295 797 336 770 q 194 824 255 824 l 53 824 l 53 1026 l 193 1026 q 331 1008 269 1026 q 438 957 394 991 q 507 870 483 923 q 532 746 532 817 l 532 0 l 336 0 "},"k":{"x_min":90,"x_max":1441.234375,"ha":1380,"o":"m 90 0 l 90 1026 l 287 1026 l 287 640 l 406 640 l 1017 1026 l 1393 1026 l 605 551 l 1441 0 l 1076 0 l 406 462 l 287 462 l 287 0 l 90 0 "},"€":{"x_min":90,"x_max":1372.171875,"ha":1462,"o":"m 533 0 q 199 59 309 0 q 90 227 90 119 l 90 796 q 123 890 90 848 q 215 963 156 932 q 356 1010 275 994 q 533 1026 437 1026 l 1372 1026 l 1218 824 l 533 824 q 292 715 292 824 l 292 672 l 1101 672 l 997 537 l 292 537 l 292 497 l 967 497 l 864 362 l 292 362 l 292 289 q 533 201 292 201 l 1329 201 l 1329 0 l 533 0 "},"<":{"x_min":90,"x_max":683,"ha":773,"o":"m 143 416 q 102 458 115 433 q 90 510 90 483 q 103 566 90 540 q 143 608 117 592 l 683 935 l 683 723 l 298 512 l 683 301 l 683 88 l 143 416 "},"t":{"x_min":12,"x_max":1252,"ha":1270,"o":"m 533 0 l 533 824 l 12 824 l 12 1026 l 1252 1026 l 1252 824 l 730 824 l 730 0 l 533 0 "},"W":{"x_min":87,"x_max":1909.8125,"ha":1997,"o":"m 419 0 q 263 18 326 0 q 161 71 199 36 q 104 158 122 106 q 87 279 87 211 l 87 1026 l 289 1026 l 289 287 q 320 222 289 244 q 417 201 351 201 l 901 201 l 901 1026 l 1098 1026 l 1098 201 l 1578 201 q 1676 222 1645 201 q 1707 287 1707 244 l 1707 1026 l 1909 1026 l 1909 279 q 1892 158 1909 211 q 1835 71 1874 106 q 1732 18 1796 36 q 1577 0 1668 0 l 419 0 "},"v":{"x_min":0,"x_max":1440.0625,"ha":1440,"o":"m 822 43 q 775 -1 803 12 q 720 -15 747 -15 q 664 -1 692 -15 q 617 43 637 12 l 0 1026 l 238 1026 l 720 241 l 1201 1026 l 1440 1026 l 822 43 "},">":{"x_min":90,"x_max":683,"ha":773,"o":"m 90 88 l 90 301 l 474 512 l 90 723 l 90 935 l 629 608 q 669 566 655 592 q 683 510 683 540 q 670 458 683 483 q 629 416 657 433 l 90 88 "},"s":{"x_min":84,"x_max":1285.8125,"ha":1367,"o":"m 84 0 l 84 201 l 955 201 q 1052 222 1021 201 q 1083 287 1083 244 l 1083 392 q 1052 457 1083 435 q 955 479 1021 479 l 375 479 q 84 699 84 479 l 84 828 q 372 1026 84 1026 l 1244 1026 l 1244 824 l 365 824 q 304 815 320 824 q 288 787 288 806 l 288 726 q 304 690 288 701 q 366 680 320 680 l 953 680 q 1108 662 1044 680 q 1211 608 1172 644 q 1268 521 1250 573 q 1285 401 1285 469 l 1285 279 q 1268 158 1285 211 q 1211 71 1250 106 q 1108 18 1172 36 q 953 0 1044 0 l 84 0 "},"B":{"x_min":90,"x_max":1329,"ha":1413,"o":"m 90 0 l 90 1026 l 1015 1026 q 1251 972 1176 1026 q 1326 810 1326 919 l 1326 665 q 1296 577 1326 609 q 1223 529 1266 544 q 1299 480 1270 514 q 1329 379 1329 446 l 1329 214 q 1252 56 1329 113 q 1015 0 1176 0 l 90 0 m 287 201 l 1008 201 q 1100 215 1070 201 q 1130 275 1130 230 l 1130 372 q 1099 419 1130 404 q 1011 435 1068 435 l 287 435 l 287 201 m 287 621 l 1024 621 q 1106 634 1082 621 q 1131 670 1131 647 l 1131 769 q 1102 810 1131 796 q 1022 824 1073 824 l 287 824 l 287 621 "},"?":{"x_min":90,"x_max":1315,"ha":1338,"o":"m 118 23 q 90 97 90 52 q 118 171 90 143 q 192 200 147 200 q 264 171 235 200 q 292 97 292 143 q 264 24 292 52 q 191 -4 235 -4 q 118 23 148 -4 m 102 301 l 102 467 q 178 624 102 567 q 407 680 254 680 l 1032 680 q 1094 690 1078 680 q 1111 726 1111 701 l 1111 787 q 1094 815 1111 806 q 1033 824 1078 824 l 91 824 l 91 1026 l 1026 1026 q 1315 828 1315 1026 l 1315 699 q 1023 479 1315 479 l 388 479 q 280 397 280 479 l 280 301 l 102 301 "},"H":{"x_min":90,"x_max":1331,"ha":1421,"o":"m 90 0 l 90 1026 l 287 1026 l 287 697 l 1134 697 l 1134 1026 l 1331 1026 l 1331 0 l 1134 0 l 1134 510 l 287 510 l 287 0 l 90 0 "},"c":{"x_min":84,"x_max":1324,"ha":1383,"o":"m 416 0 q 260 18 323 0 q 158 71 196 36 q 101 158 119 106 q 84 279 84 211 l 84 746 q 101 867 84 814 q 158 954 119 919 q 260 1007 196 989 q 416 1026 323 1026 l 1321 1026 l 1321 824 l 414 824 q 317 803 348 824 q 286 738 286 781 l 286 287 q 317 222 286 244 q 414 201 348 201 l 1324 201 l 1324 0 l 416 0 "},"&":{"x_min":84,"x_max":1440,"ha":1499,"o":"m 416 0 q 260 18 323 0 q 158 71 197 36 q 101 158 119 106 q 84 279 84 211 l 84 746 q 101 867 84 814 q 158 954 119 919 q 260 1007 196 989 q 416 1026 323 1026 l 1034 1026 l 1034 824 l 414 824 q 317 803 348 824 q 286 738 286 781 l 286 658 l 1439 658 l 1439 471 l 1227 471 l 1227 201 l 1440 201 l 1440 0 l 416 0 m 286 287 q 317 222 286 244 q 414 201 348 201 l 1030 201 l 1030 471 l 286 471 l 286 287 "},"I":{"x_min":101,"x_max":298,"ha":399,"o":"m 101 0 l 101 1026 l 298 1026 l 298 0 l 101 0 "},"G":{"x_min":84,"x_max":1324,"ha":1399,"o":"m 416 0 q 260 18 323 0 q 158 71 196 36 q 101 158 119 106 q 84 279 84 211 l 84 746 q 101 867 84 814 q 158 954 119 919 q 260 1007 196 989 q 416 1026 323 1026 l 1321 1026 l 1321 824 l 415 824 q 317 803 348 824 q 286 738 286 781 l 286 287 q 317 222 286 244 q 414 201 348 201 l 1127 201 l 1127 503 l 457 503 l 457 690 l 1224 690 q 1294 660 1265 690 q 1324 588 1324 630 l 1324 0 l 416 0 "},"(":{"x_min":120,"x_max":381.53125,"ha":471,"o":"m 265 -115 q 154 208 189 55 q 120 512 120 361 q 155 814 120 664 q 263 1135 190 965 l 380 1135 q 263 801 301 951 q 225 511 225 651 q 261 219 225 371 q 381 -115 297 66 l 265 -115 "},"`":{"x_min":90,"x_max":486,"ha":576,"o":"m 90 1163 l 90 1282 l 486 1192 l 486 1102 l 90 1163 "},"U":{"x_min":87,"x_max":1320,"ha":1407,"o":"m 419 0 q 263 18 326 0 q 161 71 199 36 q 104 158 122 106 q 87 279 87 211 l 87 1026 l 289 1026 l 289 287 q 320 222 289 244 q 417 201 351 201 l 989 201 q 1086 222 1055 201 q 1117 287 1117 244 l 1117 1026 l 1320 1026 l 1320 279 q 1302 158 1320 211 q 1245 71 1284 106 q 1143 18 1207 36 q 987 0 1079 0 l 419 0 "},"F":{"x_min":90,"x_max":1329.625,"ha":1343,"o":"m 90 0 l 90 1026 l 1329 1026 l 1329 824 l 287 824 l 287 690 l 1085 690 l 1085 503 l 287 503 l 287 0 l 90 0 "},"r":{"x_min":90,"x_max":1359.9375,"ha":1372,"o":"m 90 0 l 90 1026 l 997 1026 q 1153 1007 1089 1026 q 1255 954 1217 989 q 1312 867 1294 919 q 1330 747 1330 815 l 1330 645 q 1312 525 1330 577 q 1255 438 1294 473 q 1153 385 1217 403 q 997 367 1089 367 l 845 367 l 1359 0 l 1006 0 l 529 367 l 287 367 l 287 0 l 90 0 m 287 547 l 999 547 q 1096 568 1065 547 q 1127 633 1127 590 l 1127 738 q 1096 803 1127 781 q 999 824 1065 824 l 287 824 l 287 547 "},":":{"x_min":90,"x_max":291,"ha":381,"o":"m 118 635 q 90 709 90 664 q 118 783 90 755 q 190 812 147 812 q 263 783 235 812 q 291 709 291 755 q 263 636 291 664 q 190 608 235 608 q 118 635 148 608 m 118 180 q 90 254 90 209 q 118 328 90 300 q 190 357 147 357 q 263 328 235 357 q 291 254 291 300 q 263 181 291 209 q 190 153 235 153 q 118 180 148 153 "},"x":{"x_min":32.671875,"x_max":1687.78125,"ha":1718,"o":"m 32 0 l 705 513 l 34 1026 l 355 1026 l 853 637 l 1352 1026 l 1674 1026 l 1008 517 l 1687 0 l 1367 0 l 860 394 l 353 0 l 32 0 "},"*":{"x_min":89.828125,"x_max":699.609375,"ha":789,"o":"m 89 478 l 251 637 l 200 854 l 390 743 l 577 861 l 532 641 l 699 497 l 481 472 l 398 265 l 308 478 l 89 478 "},"V":{"x_min":0,"x_max":1440.0625,"ha":1440,"o":"m 822 43 q 775 -1 803 12 q 720 -15 747 -15 q 664 -1 692 -15 q 617 43 637 12 l 0 1026 l 238 1026 l 720 241 l 1201 1026 l 1440 1026 l 822 43 "},"h":{"x_min":90,"x_max":1331,"ha":1421,"o":"m 90 0 l 90 1026 l 287 1026 l 287 697 l 1134 697 l 1134 1026 l 1331 1026 l 1331 0 l 1134 0 l 1134 510 l 287 510 l 287 0 l 90 0 "},"0":{"x_min":84,"x_max":1324,"ha":1408,"o":"m 416 0 q 260 18 323 0 q 158 71 196 36 q 101 158 119 106 q 84 279 84 211 l 84 746 q 101 867 84 814 q 158 954 119 919 q 260 1007 196 989 q 416 1026 323 1026 l 991 1026 q 1147 1007 1083 1026 q 1249 954 1211 989 q 1306 867 1288 919 q 1324 746 1324 814 l 1324 279 q 1306 158 1324 211 q 1249 71 1288 106 q 1147 18 1211 36 q 991 0 1083 0 l 416 0 m 286 287 q 317 222 286 244 q 414 201 348 201 l 993 201 q 1090 222 1059 201 q 1121 287 1121 244 l 1121 738 q 1090 803 1121 781 q 993 824 1059 824 l 414 824 q 317 803 348 824 q 286 738 286 781 l 286 287 "},".":{"x_min":90,"x_max":291,"ha":381,"o":"m 190 -4 q 117 24 145 -4 q 90 97 90 52 q 117 171 90 143 q 190 200 145 200 q 262 171 233 200 q 291 97 291 143 q 262 24 291 52 q 190 -4 233 -4 "},"@":{"x_min":84,"x_max":1217,"ha":1301,"o":"m 388 0 q 84 252 84 0 l 84 773 q 389 1026 84 1026 l 933 1026 q 1147 961 1078 1026 q 1217 753 1217 896 l 1217 499 q 933 294 1217 294 l 585 294 q 391 466 391 294 l 391 540 q 585 707 391 707 l 1075 707 l 1075 759 q 1063 826 1075 802 q 1030 863 1050 851 q 982 879 1009 876 q 924 883 954 883 l 370 883 q 268 851 303 883 q 234 764 234 820 l 234 258 q 250 190 234 213 q 297 155 267 166 q 368 144 327 144 q 459 144 410 144 l 1204 144 l 1204 0 l 388 0 m 541 501 q 624 427 541 427 l 919 427 q 1036 441 997 427 q 1075 512 1075 456 l 1075 596 l 624 596 q 541 517 541 596 l 541 501 "},"f":{"x_min":90,"x_max":1329.625,"ha":1343,"o":"m 90 0 l 90 1026 l 1329 1026 l 1329 824 l 287 824 l 287 690 l 1085 690 l 1085 503 l 287 503 l 287 0 l 90 0 "},";":{"x_min":90,"x_max":292.8125,"ha":383,"o":"m 118 550 q 90 624 90 579 q 118 698 90 670 q 192 727 147 727 q 264 698 235 727 q 292 624 292 670 q 264 551 292 579 q 190 523 237 523 q 118 550 148 523 m 127 -89 l 127 246 l 256 246 l 256 -89 l 127 -89 "},"i":{"x_min":101,"x_max":298,"ha":399,"o":"m 101 0 l 101 1026 l 298 1026 l 298 0 l 101 0 "},"6":{"x_min":84,"x_max":1324,"ha":1392,"o":"m 399 0 q 250 15 311 0 q 153 61 190 31 q 100 133 116 91 q 84 227 84 174 l 84 766 q 158 963 84 901 q 377 1026 233 1026 l 1145 1026 l 1145 824 l 377 824 q 305 808 330 824 q 281 753 281 792 l 281 683 l 998 683 q 1154 667 1091 683 q 1254 618 1216 651 q 1307 537 1291 585 q 1324 422 1324 488 l 1324 279 q 1307 158 1324 211 q 1252 71 1291 106 q 1151 18 1213 36 q 997 0 1088 0 l 399 0 m 281 287 q 306 222 281 244 q 398 201 331 201 l 998 201 q 1096 222 1065 201 q 1127 287 1127 244 l 1127 424 q 1096 484 1127 465 q 998 504 1065 504 l 281 504 l 281 287 "},"A":{"x_min":87,"x_max":1327,"ha":1414,"o":"m 87 0 l 87 677 q 183 935 87 845 q 474 1026 280 1026 l 939 1026 q 1230 935 1133 1026 q 1327 677 1327 845 l 1327 0 l 1130 0 l 1130 328 l 284 328 l 284 0 l 87 0 m 284 515 l 1130 515 l 1130 677 q 1121 742 1130 714 q 1089 787 1112 769 q 1030 815 1067 806 q 937 824 993 824 l 476 824 q 383 815 420 824 q 324 787 346 806 q 292 742 301 769 q 284 677 284 714 l 284 515 "},"n":{"x_min":90,"x_max":1330,"ha":1420,"o":"m 90 0 l 90 937 q 117 1012 90 985 q 182 1040 145 1040 q 216 1034 198 1040 q 248 1016 234 1028 l 1133 290 l 1133 1026 l 1330 1026 l 1330 88 q 1302 13 1330 40 q 1237 -14 1274 -14 q 1203 -8 1221 -14 q 1171 9 1185 -2 l 287 735 l 287 0 l 90 0 "},"O":{"x_min":84,"x_max":1324,"ha":1408,"o":"m 416 0 q 260 18 323 0 q 158 71 196 36 q 101 158 119 106 q 84 279 84 211 l 84 746 q 101 867 84 814 q 158 954 119 919 q 260 1007 196 989 q 416 1026 323 1026 l 991 1026 q 1147 1007 1083 1026 q 1249 954 1211 989 q 1306 867 1288 919 q 1324 746 1324 814 l 1324 279 q 1306 158 1324 211 q 1249 71 1288 106 q 1147 18 1211 36 q 991 0 1083 0 l 416 0 m 286 287 q 317 222 286 244 q 414 201 348 201 l 993 201 q 1090 222 1059 201 q 1121 287 1121 244 l 1121 738 q 1090 803 1121 781 q 993 824 1059 824 l 414 824 q 317 803 348 824 q 286 738 286 781 l 286 287 "},"3":{"x_min":62.296875,"x_max":1210,"ha":1294,"o":"m 62 0 l 62 201 l 889 201 q 981 215 951 201 q 1011 275 1011 230 l 1011 372 q 980 419 1011 404 q 892 435 949 435 l 164 435 l 164 621 l 906 621 q 987 634 963 621 q 1012 670 1012 647 l 1012 769 q 983 810 1012 796 q 903 824 955 824 l 67 824 l 67 1026 l 896 1026 q 1132 972 1057 1026 q 1207 810 1207 919 l 1207 665 q 1177 577 1207 609 q 1104 529 1147 544 q 1180 480 1151 514 q 1210 379 1210 446 l 1210 214 q 1133 56 1210 113 q 896 0 1057 0 l 62 0 "},"]":{"x_min":90.015625,"x_max":327,"ha":417,"o":"m 90 -115 l 90 9 l 203 9 l 203 1007 l 90 1007 l 90 1135 l 327 1135 l 327 -115 l 90 -115 "},"m":{"x_min":90,"x_max":1846,"ha":1936,"o":"m 90 0 l 90 942 q 118 1015 90 991 q 183 1040 147 1040 q 229 1030 206 1040 q 272 1002 253 1021 l 968 229 l 1663 1002 q 1705 1030 1681 1021 q 1752 1040 1729 1040 q 1817 1015 1788 1040 q 1846 942 1846 991 l 1846 0 l 1649 0 l 1649 695 l 1038 16 q 968 -14 1010 -14 q 897 16 925 -14 l 287 695 l 287 0 l 90 0 "},"9":{"x_min":72,"x_max":1312,"ha":1396,"o":"m 250 0 l 250 201 l 1018 201 q 1090 217 1065 201 q 1115 272 1115 233 l 1115 354 l 397 354 q 241 369 304 354 q 142 418 179 385 q 88 499 104 451 q 72 615 72 548 l 72 746 q 88 867 72 814 q 143 954 104 919 q 244 1007 182 989 q 398 1026 306 1026 l 996 1026 q 1145 1010 1084 1026 q 1242 964 1205 994 q 1295 892 1279 934 q 1312 798 1312 849 l 1312 259 q 1237 62 1312 124 q 1018 0 1162 0 l 250 0 m 269 612 q 299 552 269 571 q 397 533 330 533 l 1115 533 l 1115 738 q 1089 803 1115 781 q 997 824 1064 824 l 397 824 q 299 803 330 824 q 269 738 269 781 l 269 612 "},"l":{"x_min":90,"x_max":987.984375,"ha":1022,"o":"m 90 0 l 90 1026 l 287 1026 l 287 201 l 987 201 l 987 0 l 90 0 "},"8":{"x_min":84,"x_max":1327,"ha":1411,"o":"m 397 0 q 160 56 236 0 q 84 214 84 113 l 84 379 q 113 480 84 446 q 189 529 142 514 q 117 577 147 544 q 87 665 87 609 l 87 810 q 161 972 87 919 q 397 1026 236 1026 l 1013 1026 q 1249 972 1174 1026 q 1324 810 1324 919 l 1324 665 q 1294 577 1324 609 q 1221 529 1264 544 q 1297 480 1268 514 q 1327 379 1327 446 l 1327 214 q 1250 56 1327 113 q 1013 0 1174 0 l 397 0 m 282 670 q 306 634 282 647 q 388 621 330 621 l 1022 621 q 1104 634 1080 621 q 1129 670 1129 647 l 1129 769 q 1100 810 1129 796 q 1020 824 1071 824 l 390 824 q 310 810 339 824 q 282 769 282 796 l 282 670 m 283 288 q 404 201 283 201 l 1006 201 q 1128 288 1128 201 l 1128 372 q 1097 419 1128 404 q 1009 435 1066 435 l 401 435 q 313 419 344 435 q 283 372 283 404 l 283 288 "},"p":{"x_min":90,"x_max":1330,"ha":1364,"o":"m 90 0 l 90 1026 l 997 1026 q 1153 1007 1089 1026 q 1255 954 1217 989 q 1312 867 1294 919 q 1330 747 1330 815 l 1330 613 q 1312 493 1330 545 q 1255 406 1294 441 q 1153 353 1217 371 q 997 335 1089 335 l 287 335 l 287 0 l 90 0 m 287 522 l 999 522 q 1096 543 1065 522 q 1127 608 1127 565 l 1127 738 q 1096 803 1127 781 q 999 824 1065 824 l 287 824 l 287 522 "},"4":{"x_min":44,"x_max":1333,"ha":1351,"o":"m 380 321 q 239 336 300 321 q 133 387 177 351 q 67 484 90 423 q 44 634 44 544 l 44 1026 l 241 1026 l 241 620 q 272 532 241 556 q 385 508 303 508 l 992 508 l 992 811 l 1189 811 l 1189 508 l 1333 508 l 1333 321 l 1189 321 l 1189 0 l 992 0 l 992 321 l 380 321 "},"R":{"x_min":90,"x_max":1359.9375,"ha":1372,"o":"m 90 0 l 90 1026 l 997 1026 q 1153 1007 1089 1026 q 1255 954 1217 989 q 1312 867 1294 919 q 1330 747 1330 815 l 1330 645 q 1312 525 1330 577 q 1255 438 1294 473 q 1153 385 1217 403 q 997 367 1089 367 l 845 367 l 1359 0 l 1006 0 l 529 367 l 287 367 l 287 0 l 90 0 m 287 547 l 999 547 q 1096 568 1065 547 q 1127 633 1127 590 l 1127 738 q 1096 803 1127 781 q 999 824 1065 824 l 287 824 l 287 547 "},"o":{"x_min":84,"x_max":1324,"ha":1408,"o":"m 416 0 q 260 18 323 0 q 158 71 196 36 q 101 158 119 106 q 84 279 84 211 l 84 746 q 101 867 84 814 q 158 954 119 919 q 260 1007 196 989 q 416 1026 323 1026 l 991 1026 q 1147 1007 1083 1026 q 1249 954 1211 989 q 1306 867 1288 919 q 1324 746 1324 814 l 1324 279 q 1306 158 1324 211 q 1249 71 1288 106 q 1147 18 1211 36 q 991 0 1083 0 l 416 0 m 286 287 q 317 222 286 244 q 414 201 348 201 l 993 201 q 1090 222 1059 201 q 1121 287 1121 244 l 1121 738 q 1090 803 1121 781 q 993 824 1059 824 l 414 824 q 317 803 348 824 q 286 738 286 781 l 286 287 "},"5":{"x_min":79,"x_max":1319,"ha":1395,"o":"m 79 0 l 79 201 l 987 201 q 1089 225 1056 201 q 1122 291 1122 249 l 1122 486 l 360 486 q 246 496 297 486 q 157 533 194 506 q 99 607 119 560 q 79 726 79 653 l 79 1026 l 1317 1026 l 1317 824 l 276 824 l 276 731 q 297 686 276 699 q 365 673 318 673 l 1319 673 l 1319 278 q 1294 143 1319 197 q 1226 58 1270 90 q 1120 13 1182 26 q 985 0 1059 0 l 79 0 "}}}
